<svg width="835" height="339" viewBox="0 0 835 339" fill="none" xmlns="http://www.w3.org/2000/svg">
<g clip-path="url(#clip0_0_1)">
<path d="M28.6395 320.06H19.8886L0 268.649H10.4144L24.2279 304.536L38.1137 268.649H48.4558L28.6395 320.06ZM77.0393 320.06H67.3481V268.649H77.0393V320.06ZM103.091 338.907C97.812 338.907 92.8218 336.957 89.2057 333.419L87.5422 331.686L95.6423 325.837L96.7272 326.92C98.5352 328.437 100.85 329.303 103.091 329.303C108.588 329.303 113.217 324.61 113.217 319.05V278.325H100.488V268.577H123.052V319.05C123.052 324.393 120.955 329.447 117.194 333.202C115.386 335.08 113.144 336.452 110.758 337.462C108.371 338.401 105.767 338.907 103.091 338.907ZM187.652 320.06H177.238L171.958 306.197H154.89L149.539 320.06H139.196L159.013 268.649H167.764L187.652 320.06ZM158.651 296.665H168.198L163.424 284.173L158.651 296.665ZM220.069 320.06H210.305V294.643L191.719 268.649H203.579L215.223 284.896L226.867 268.649H238.656L220.069 294.643V320.06Z" fill="#11999E"/>
</g>
<path d="M303.856 319.494H270.906V268.572H304.501V277.87H280.505V285.379H301.42V294.891H280.505V310.054H303.856V319.494ZM365.33 319.494H356.09L333.455 286.094V319.494H323.857V268.572H333.169L355.732 301.9V268.572H365.33V319.494ZM406.677 319.494H397.078V278.013H384.543V268.572H419.212V278.013H406.677V319.494ZM469.512 319.494H436.562V268.572H470.157V277.87H446.161V285.379H467.077V294.891H446.161V310.054H469.512V319.494ZM531.559 319.494H520.242L502.12 294.605H498.037V319.494H488.725V268.572H506.99C510.429 268.572 513.652 269.931 516.159 272.434C518.666 274.937 520.027 278.156 520.027 281.589C520.027 286.667 517.019 291.244 512.578 293.389L531.559 319.494ZM498.037 285.308H506.99C508.996 285.308 510.715 283.663 510.715 281.589C510.715 279.515 508.996 277.87 506.99 277.87H498.037V285.308ZM557.291 319.494H547.764V268.572H566.029C569.539 268.572 572.834 269.931 575.341 272.434C577.777 274.937 579.209 278.156 579.209 281.66C579.209 288.884 573.264 294.677 566.029 294.677H557.291V319.494ZM557.291 285.308H566.029C568.035 285.308 569.611 283.663 569.611 281.66C569.611 279.658 567.963 277.941 566.029 277.941H557.291V285.308ZM639.251 319.494H627.933L609.811 294.605H605.728V319.494H596.416V268.572H614.682C618.12 268.572 621.344 269.931 623.851 272.434C626.358 274.937 627.719 278.156 627.719 281.589C627.719 286.667 624.71 291.244 620.269 293.389L639.251 319.494ZM605.728 285.308H614.682C616.688 285.308 618.407 283.663 618.407 281.589C618.407 279.515 616.688 277.87 614.682 277.87H605.728V285.308ZM666.128 319.494H656.53V268.572H666.128V319.494ZM707.116 319.923C705.469 319.923 703.75 319.709 701.959 319.351C696.659 318.278 691.501 315.704 686.989 311.77L685.628 310.554L691.931 303.402L693.292 304.618C696.587 307.479 700.24 309.41 703.822 310.125H703.893C704.968 310.34 706.042 310.483 707.116 310.483C708.907 310.483 710.555 310.125 711.916 309.481C713.635 308.766 715.64 307.193 715.64 304.26C715.64 302.687 714.852 301.471 713.205 300.47C711.199 299.254 708.477 298.61 706.543 298.253C705.684 298.11 698.378 296.608 695.011 294.748C692.791 293.389 691.071 291.673 689.854 289.67C688.636 287.596 688.063 285.308 688.063 282.805C688.063 280.087 688.923 277.369 690.57 274.866C692.146 272.792 694.295 271.075 696.873 269.86C699.452 268.644 702.317 268 705.397 268C706.615 268 707.904 268.143 709.194 268.286C713.921 269.144 718.577 271.29 722.66 274.723L724.021 275.867L717.933 283.234L716.572 282.089C711.916 278.299 707.904 277.441 705.326 277.441C703.678 277.441 702.174 277.798 700.885 278.37C698.879 279.3 697.59 281.017 697.59 282.733C697.59 284.306 698.163 285.308 699.524 286.237C700.885 287.167 702.962 287.882 706.257 288.598C706.687 288.669 707.26 288.812 707.833 288.955C710.841 289.527 714.852 290.386 717.646 292.031C720.081 293.318 721.944 295.106 723.233 297.18C724.522 299.254 725.167 301.686 725.167 304.26C725.167 307.479 724.308 310.34 722.588 312.771C721.084 314.845 718.864 316.633 715.927 318.064C713.42 319.351 710.626 319.923 707.116 319.923ZM777.688 319.494H744.738V268.572H778.332V277.87H754.337V285.379H775.252V294.891H754.337V310.054H777.688V319.494ZM816.599 319.923C814.951 319.923 813.232 319.709 811.441 319.351C806.141 318.278 800.984 315.704 796.471 311.77L795.11 310.554L801.413 303.402L802.774 304.618C806.069 307.479 809.722 309.41 813.304 310.125H813.375C814.45 310.34 815.524 310.483 816.599 310.483C818.39 310.483 820.037 310.125 821.398 309.481C823.117 308.766 825.123 307.193 825.123 304.26C825.123 302.687 824.335 301.471 822.687 300.47C820.682 299.254 817.96 298.61 816.026 298.253C815.166 298.11 807.86 296.608 804.493 294.748C802.273 293.389 800.554 291.673 799.336 289.67C798.118 287.596 797.545 285.308 797.545 282.805C797.545 280.087 798.405 277.369 800.052 274.866C801.628 272.792 803.777 271.075 806.356 269.86C808.934 268.644 811.8 268 814.88 268C816.097 268 817.387 268.143 818.676 268.286C823.404 269.144 828.06 271.29 832.142 274.723L833.503 275.867L827.415 283.234L826.054 282.089C821.398 278.299 817.387 277.441 814.808 277.441C813.161 277.441 811.656 277.798 810.367 278.37C808.361 279.3 807.072 281.017 807.072 282.733C807.072 284.306 807.645 285.308 809.006 286.237C810.367 287.167 812.444 287.882 815.739 288.598C816.169 288.669 816.742 288.812 817.315 288.955C820.324 289.527 824.335 290.386 827.128 292.031C829.564 293.318 831.426 295.106 832.715 297.18C834.005 299.254 834.649 301.686 834.649 304.26C834.649 307.479 833.79 310.34 832.071 312.771C830.567 314.845 828.346 316.633 825.409 318.064C822.902 319.351 820.109 319.923 816.599 319.923Z" fill="#40514E"/>
<path d="M435.285 16.7603H541.285L524.285 46.7603L435.285 47.7603V16.7603Z" fill="#575757"/>
<path d="M435.285 93.7603H524.285L510.012 123.76L435.285 124.76V93.7603Z" fill="#575757"/>
<path d="M435.285 170.76H541.285L524.285 200.76L435.285 201.76V170.76Z" fill="#575757"/>
<path d="M314 16H410L395.371 46L314 47V16Z" fill="#575757"/>
<path d="M435.285 16.7605L454.786 16.7593L474.285 16.7605L383.286 201.259L364.378 161.983L435.285 16.7605Z" fill="#11999E"/>
<path d="M293.285 15.7603L333.285 15.7601L403.285 160.26L383.58 201.615L293.285 15.7603Z" fill="#575757"/>
<defs>
<clipPath id="clip0_0_1">
<rect width="238.656" height="70.9065" fill="white" transform="translate(0 268)"/>
</clipPath>
</defs>
</svg>
